<?xml version="1.0" encoding="utf-8"?>
<!-- Generator: Adobe Illustrator 17.0.0, SVG Export Plug-In . SVG Version: 6.00 Build 0)  -->
<!DOCTYPE svg PUBLIC "-//W3C//DTD SVG 1.1//EN" "http://www.w3.org/Graphics/SVG/1.1/DTD/svg11.dtd">
<svg version="1.1" id="Layer_1" xmlns="http://www.w3.org/2000/svg" xmlns:xlink="http://www.w3.org/1999/xlink" x="0px" y="0px"
	 width="383.622px" height="133.043px" viewBox="0 0 383.622 133.043" enable-background="new 0 0 383.622 133.043"
	 xml:space="preserve">
<path fill="#414042" d="M50.376,23.404v69.164H29.331V23.404H4.717V5.436h70.272v17.968H50.376z"/>
<path fill="#414042" d="M135.907,92.568V56.139H101.94v36.428H80.896V5.436h21.045v32.982h33.967V5.436h21.045v87.132H135.907z"/>
<path fill="#D52B27" d="M171.226,92.568V5.436h21.167v87.132H171.226z"/>
<path fill="#414042" d="M262.049,92.568l-35.074-56.981h-0.369l0.492,56.981h-20.429V5.436h23.998l34.952,56.857h0.369
	l-0.492-56.857h20.429v87.132H262.049z"/>
<path fill="#414042" d="M353.365,92.568l-32.367-40.12h-0.246v40.12H300.2V5.436h20.552v35.443h0.369l31.136-35.443h26.336
	l-37.536,40.12l39.751,47.012H353.365z"/>
<text transform="matrix(0.93 0 0 1 3.92 127.4282)"><tspan x="0" y="0" fill="#414042" font-family="'AvenirNext-Regular'" font-size="40.6459" letter-spacing="-2.151">Childcare</tspan><tspan x="159.411" y="0" fill="#939598" font-family="'AvenirNext-Regular'" font-size="40.6459" letter-spacing="-2.151">&amp;</tspan><tspan x="185.83" y="0" fill="#414042" font-family="'AvenirNext-Regular'" font-size="40.6459" letter-spacing="-2.151">Education</tspan><tspan x="353.167" y="0" fill="#939598" font-family="'AvenirNext-Regular'" font-size="40.6459" letter-spacing="-2.151">Ltd</tspan></text>
<rect x="29.331" y="5.436" fill="#00AEEF" width="21.044" height="87.132"/>
<rect x="80.896" y="5.436" fill="#7053A3" width="21.045" height="87.132"/>
<polygon fill="#FEBE27" points="285.925,92.568 262.049,92.568 206.669,5.436 230.667,5.436 "/>
<rect x="300.2" y="5.436" fill="#71BF44" width="20.552" height="87.132"/>
</svg>
